<mxfile host="Electron" modified="2023-07-24T14:01:57.842Z" agent="Mozilla/5.0 (Macintosh; Intel Mac OS X 10_15_7) AppleWebKit/537.36 (KHTML, like Gecko) draw.io/21.6.1 Chrome/112.0.5615.204 Electron/24.6.1 Safari/537.36" etag="FuauZyJ0pYKtz6Nyoicw" version="21.6.1" type="device">
  <diagram name="Page-1" id="vyqxLwW7QJTfSOO5Ivzo">
    <mxGraphModel dx="1674" dy="67" grid="0" gridSize="10" guides="1" tooltips="1" connect="1" arrows="1" fold="1" page="0" pageScale="1" pageWidth="827" pageHeight="1169" math="0" shadow="0">
      <root>
        <mxCell id="0" />
        <mxCell id="1" parent="0" />
        <mxCell id="-tr_Jl8yfyVWpY2dG3ru-127" value="" style="rounded=1;whiteSpace=wrap;html=1;fontSize=14;fillColor=#f0f6ff;fontColor=#333333;strokeColor=#f0f6ff;" parent="1" vertex="1">
          <mxGeometry x="480" y="1633" width="1498" height="888" as="geometry" />
        </mxCell>
        <mxCell id="Pu00R0AXdo9YrrrDTK1f-9" value="" style="edgeStyle=orthogonalEdgeStyle;rounded=1;orthogonalLoop=1;jettySize=auto;html=1;strokeColor=#666666;" parent="1" source="-tr_Jl8yfyVWpY2dG3ru-134" target="-tr_Jl8yfyVWpY2dG3ru-135" edge="1">
          <mxGeometry relative="1" as="geometry" />
        </mxCell>
        <mxCell id="-tr_Jl8yfyVWpY2dG3ru-134" value="&lt;font style=&quot;font-size: 12px;&quot;&gt;recreate&amp;nbsp;&lt;span style=&quot;border-color: var(--border-color);&quot;&gt;ca-server-cert&lt;/span&gt;&lt;/font&gt;" style="rounded=1;whiteSpace=wrap;html=1;fontSize=14;strokeColor=#666666;" parent="1" vertex="1">
          <mxGeometry x="1522.5" y="1978.5" width="147" height="59" as="geometry" />
        </mxCell>
        <mxCell id="Pu00R0AXdo9YrrrDTK1f-10" value="" style="edgeStyle=orthogonalEdgeStyle;rounded=1;orthogonalLoop=1;jettySize=auto;html=1;strokeColor=#666666;" parent="1" source="-tr_Jl8yfyVWpY2dG3ru-135" target="-tr_Jl8yfyVWpY2dG3ru-218" edge="1">
          <mxGeometry relative="1" as="geometry" />
        </mxCell>
        <mxCell id="-tr_Jl8yfyVWpY2dG3ru-135" value="&lt;font style=&quot;font-size: 12px;&quot;&gt;recreate&amp;nbsp;&lt;span style=&quot;border-color: var(--border-color);&quot;&gt;webhook-server-cert&lt;/span&gt;&lt;/font&gt;" style="rounded=1;whiteSpace=wrap;html=1;fontSize=14;strokeColor=#666666;" parent="1" vertex="1">
          <mxGeometry x="1523.5" y="2094" width="145" height="62" as="geometry" />
        </mxCell>
        <mxCell id="xWwAX8yrmCoNilL9z8sZ-58" style="edgeStyle=orthogonalEdgeStyle;rounded=1;orthogonalLoop=1;jettySize=auto;html=1;entryX=0.5;entryY=0;entryDx=0;entryDy=0;strokeColor=#666666;" parent="1" source="-tr_Jl8yfyVWpY2dG3ru-173" target="xWwAX8yrmCoNilL9z8sZ-50" edge="1">
          <mxGeometry relative="1" as="geometry" />
        </mxCell>
        <mxCell id="-tr_Jl8yfyVWpY2dG3ru-173" value="&lt;div style=&quot;font-size: 12px;&quot;&gt;&lt;font style=&quot;background-color: initial; font-size: 12px;&quot;&gt;set Webhooks&#39; caBundle&amp;nbsp;&lt;/font&gt;&lt;/div&gt;&lt;div style=&quot;font-size: 12px;&quot;&gt;&lt;font style=&quot;background-color: initial; font-size: 12px;&quot;&gt;to cert from&amp;nbsp;&lt;/font&gt;&lt;span style=&quot;background-color: initial; border-color: var(--border-color);&quot;&gt;ca-server-cert&amp;nbsp;&lt;/span&gt;&lt;span style=&quot;background-color: initial; border-color: var(--border-color);&quot;&gt;Secret&lt;/span&gt;&lt;/div&gt;" style="rounded=1;whiteSpace=wrap;html=1;fontSize=14;align=center;strokeColor=#666666;" parent="1" vertex="1">
          <mxGeometry x="525.5" y="2203" width="134" height="71" as="geometry" />
        </mxCell>
        <mxCell id="Pu00R0AXdo9YrrrDTK1f-4" value="" style="edgeStyle=orthogonalEdgeStyle;rounded=1;orthogonalLoop=1;jettySize=auto;html=1;strokeColor=#666666;" parent="1" source="-tr_Jl8yfyVWpY2dG3ru-174" target="-tr_Jl8yfyVWpY2dG3ru-173" edge="1">
          <mxGeometry relative="1" as="geometry" />
        </mxCell>
        <mxCell id="-tr_Jl8yfyVWpY2dG3ru-174" value="&lt;font style=&quot;font-size: 12px;&quot;&gt;create&amp;nbsp;&lt;span style=&quot;border-color: var(--border-color);&quot;&gt;webhook-server-cert&lt;/span&gt;&lt;/font&gt;" style="rounded=1;whiteSpace=wrap;html=1;fontSize=14;strokeColor=#666666;" parent="1" vertex="1">
          <mxGeometry x="524" y="2094" width="137" height="62" as="geometry" />
        </mxCell>
        <mxCell id="Pu00R0AXdo9YrrrDTK1f-1" value="" style="edgeStyle=orthogonalEdgeStyle;rounded=1;orthogonalLoop=1;jettySize=auto;html=1;strokeColor=#666666;" parent="1" source="-tr_Jl8yfyVWpY2dG3ru-175" target="-tr_Jl8yfyVWpY2dG3ru-174" edge="1">
          <mxGeometry relative="1" as="geometry" />
        </mxCell>
        <mxCell id="-tr_Jl8yfyVWpY2dG3ru-175" value="&lt;font style=&quot;font-size: 12px;&quot;&gt;create&amp;nbsp;&lt;span style=&quot;border-color: var(--border-color);&quot;&gt;ca-server-cert&lt;/span&gt;&lt;/font&gt;" style="rounded=1;whiteSpace=wrap;html=1;fontSize=14;strokeColor=#666666;" parent="1" vertex="1">
          <mxGeometry x="523" y="1986" width="138" height="60" as="geometry" />
        </mxCell>
        <mxCell id="rAdUN6T4OuiU2hSwLSGW-6" value="" style="edgeStyle=orthogonalEdgeStyle;rounded=1;orthogonalLoop=1;jettySize=auto;html=1;strokeColor=#666666;" parent="1" source="-tr_Jl8yfyVWpY2dG3ru-207" target="-tr_Jl8yfyVWpY2dG3ru-127" edge="1">
          <mxGeometry relative="1" as="geometry">
            <Array as="points">
              <mxPoint x="1093" y="1618" />
              <mxPoint x="1093" y="1618" />
            </Array>
          </mxGeometry>
        </mxCell>
        <mxCell id="-tr_Jl8yfyVWpY2dG3ru-207" value="&lt;span style=&quot;font-size: 12px;&quot;&gt;CR edit&lt;/span&gt;" style="ellipse;whiteSpace=wrap;html=1;aspect=fixed;labelBackgroundColor=none;fontSize=10;fillColor=#FFFFFF;strokeColor=#666666;" parent="1" vertex="1">
          <mxGeometry x="1028" y="1432" width="130" height="130" as="geometry" />
        </mxCell>
        <mxCell id="xWwAX8yrmCoNilL9z8sZ-59" style="edgeStyle=orthogonalEdgeStyle;rounded=1;orthogonalLoop=1;jettySize=auto;html=1;strokeColor=#666666;" parent="1" source="-tr_Jl8yfyVWpY2dG3ru-217" target="xWwAX8yrmCoNilL9z8sZ-53" edge="1">
          <mxGeometry relative="1" as="geometry" />
        </mxCell>
        <mxCell id="-tr_Jl8yfyVWpY2dG3ru-217" value="&lt;font style=&quot;font-size: 12px;&quot;&gt;create&amp;nbsp;&lt;span style=&quot;border-color: var(--border-color);&quot;&gt;webhook-server-cert&lt;/span&gt;&lt;/font&gt;" style="rounded=1;whiteSpace=wrap;html=1;fontSize=14;strokeColor=#666666;" parent="1" vertex="1">
          <mxGeometry x="774.5" y="1985" width="137" height="62" as="geometry" />
        </mxCell>
        <mxCell id="xWwAX8yrmCoNilL9z8sZ-62" style="edgeStyle=orthogonalEdgeStyle;rounded=1;orthogonalLoop=1;jettySize=auto;html=1;strokeColor=#666666;" parent="1" source="-tr_Jl8yfyVWpY2dG3ru-218" target="xWwAX8yrmCoNilL9z8sZ-56" edge="1">
          <mxGeometry relative="1" as="geometry" />
        </mxCell>
        <mxCell id="-tr_Jl8yfyVWpY2dG3ru-218" value="&lt;div style=&quot;font-size: 12px;&quot;&gt;&lt;font style=&quot;background-color: initial; font-size: 12px;&quot;&gt;set Webhooks&#39;&amp;nbsp;&lt;/font&gt;&lt;/div&gt;&lt;div style=&quot;font-size: 12px;&quot;&gt;&lt;font style=&quot;background-color: initial; font-size: 12px;&quot;&gt;caBundle&amp;nbsp;&lt;/font&gt;&lt;/div&gt;&lt;div style=&quot;font-size: 12px;&quot;&gt;&lt;font style=&quot;background-color: initial; font-size: 12px;&quot;&gt;to cert from&amp;nbsp;&lt;/font&gt;&lt;span style=&quot;background-color: initial; border-color: var(--border-color);&quot;&gt;ca-server-cert&amp;nbsp;&lt;/span&gt;&lt;span style=&quot;background-color: initial; border-color: var(--border-color);&quot;&gt;Secret&lt;/span&gt;&lt;/div&gt;" style="rounded=1;whiteSpace=wrap;html=1;fontSize=14;align=center;strokeColor=#666666;" parent="1" vertex="1">
          <mxGeometry x="1523.5" y="2203" width="144" height="71" as="geometry" />
        </mxCell>
        <mxCell id="xWwAX8yrmCoNilL9z8sZ-61" style="edgeStyle=orthogonalEdgeStyle;rounded=1;orthogonalLoop=1;jettySize=auto;html=1;strokeColor=#666666;" parent="1" source="-tr_Jl8yfyVWpY2dG3ru-219" target="xWwAX8yrmCoNilL9z8sZ-55" edge="1">
          <mxGeometry relative="1" as="geometry" />
        </mxCell>
        <mxCell id="-tr_Jl8yfyVWpY2dG3ru-219" value="&lt;div style=&quot;font-size: 12px;&quot;&gt;&lt;font style=&quot;background-color: initial; font-size: 12px;&quot;&gt;set Webhooks&#39;&lt;/font&gt;&lt;/div&gt;&lt;div style=&quot;font-size: 12px;&quot;&gt;&lt;font style=&quot;background-color: initial; font-size: 12px;&quot;&gt;&amp;nbsp;caBundle&amp;nbsp;&lt;/font&gt;&lt;/div&gt;&lt;div style=&quot;font-size: 12px;&quot;&gt;&lt;font style=&quot;background-color: initial; font-size: 12px;&quot;&gt;to cert from&amp;nbsp;&lt;/font&gt;&lt;span style=&quot;background-color: initial; border-color: var(--border-color);&quot;&gt;ca-server-cert&amp;nbsp;&lt;/span&gt;&lt;span style=&quot;background-color: initial; border-color: var(--border-color);&quot;&gt;Secret&lt;/span&gt;&lt;/div&gt;" style="rounded=1;whiteSpace=wrap;html=1;fontSize=14;align=center;strokeColor=#666666;" parent="1" vertex="1">
          <mxGeometry x="1274" y="2203" width="141" height="71" as="geometry" />
        </mxCell>
        <mxCell id="xWwAX8yrmCoNilL9z8sZ-63" style="edgeStyle=orthogonalEdgeStyle;rounded=1;orthogonalLoop=1;jettySize=auto;html=1;strokeColor=#666666;" parent="1" target="xWwAX8yrmCoNilL9z8sZ-57" edge="1">
          <mxGeometry relative="1" as="geometry">
            <mxPoint x="1846" y="2043" as="sourcePoint" />
          </mxGeometry>
        </mxCell>
        <mxCell id="-tr_Jl8yfyVWpY2dG3ru-220" value="&lt;font style=&quot;font-size: 12px;&quot;&gt;recreate&amp;nbsp;&lt;span style=&quot;border-color: var(--border-color);&quot;&gt;webhook-server-cert&lt;/span&gt;&lt;/font&gt;" style="rounded=1;whiteSpace=wrap;html=1;fontSize=14;strokeColor=#666666;" parent="1" vertex="1">
          <mxGeometry x="1773.5" y="1978.5" width="145" height="62" as="geometry" />
        </mxCell>
        <mxCell id="Pu00R0AXdo9YrrrDTK1f-7" value="" style="edgeStyle=orthogonalEdgeStyle;rounded=1;orthogonalLoop=1;jettySize=auto;html=1;strokeColor=#666666;" parent="1" source="-tr_Jl8yfyVWpY2dG3ru-221" target="-tr_Jl8yfyVWpY2dG3ru-222" edge="1">
          <mxGeometry relative="1" as="geometry" />
        </mxCell>
        <mxCell id="-tr_Jl8yfyVWpY2dG3ru-221" value="&lt;font style=&quot;font-size: 12px;&quot;&gt;recreate&amp;nbsp;&lt;span style=&quot;border-color: var(--border-color);&quot;&gt;ca-server-cert&lt;/span&gt;&lt;/font&gt;" style="rounded=1;whiteSpace=wrap;html=1;fontSize=14;strokeColor=#666666;" parent="1" vertex="1">
          <mxGeometry x="1271" y="1983" width="147" height="59" as="geometry" />
        </mxCell>
        <mxCell id="Pu00R0AXdo9YrrrDTK1f-8" value="" style="edgeStyle=orthogonalEdgeStyle;rounded=1;orthogonalLoop=1;jettySize=auto;html=1;strokeColor=#666666;" parent="1" source="-tr_Jl8yfyVWpY2dG3ru-222" target="-tr_Jl8yfyVWpY2dG3ru-219" edge="1">
          <mxGeometry relative="1" as="geometry" />
        </mxCell>
        <mxCell id="-tr_Jl8yfyVWpY2dG3ru-222" value="&lt;font style=&quot;font-size: 12px;&quot;&gt;recreate&amp;nbsp;&lt;span style=&quot;border-color: var(--border-color);&quot;&gt;webhook-server-cert&lt;/span&gt;&lt;/font&gt;" style="rounded=1;whiteSpace=wrap;html=1;fontSize=14;" parent="1" vertex="1">
          <mxGeometry x="1272" y="2094" width="145" height="62" as="geometry" />
        </mxCell>
        <mxCell id="rAdUN6T4OuiU2hSwLSGW-3" value="" style="edgeStyle=orthogonalEdgeStyle;rounded=1;orthogonalLoop=1;jettySize=auto;html=1;strokeColor=#666666;" parent="1" source="D-mSAHQnKh3Qnr3-uecS-1" target="-tr_Jl8yfyVWpY2dG3ru-127" edge="1">
          <mxGeometry relative="1" as="geometry">
            <Array as="points">
              <mxPoint x="1405" y="1628" />
              <mxPoint x="1405" y="1628" />
            </Array>
          </mxGeometry>
        </mxCell>
        <mxCell id="D-mSAHQnKh3Qnr3-uecS-1" value="&lt;span style=&quot;border-color: var(--border-color); font-size: 12px;&quot;&gt;&lt;font style=&quot;border-color: var(--border-color); font-size: 12px;&quot;&gt;watchers&lt;/font&gt;&lt;/span&gt;" style="ellipse;whiteSpace=wrap;html=1;aspect=fixed;labelBackgroundColor=none;fontSize=10;fillColor=#FFFFFF;strokeColor=#666666;" parent="1" vertex="1">
          <mxGeometry x="1340" y="1432" width="130" height="130" as="geometry" />
        </mxCell>
        <mxCell id="rAdUN6T4OuiU2hSwLSGW-2" value="" style="edgeStyle=orthogonalEdgeStyle;rounded=1;orthogonalLoop=1;jettySize=auto;html=1;strokeColor=#666666;" parent="1" source="D-mSAHQnKh3Qnr3-uecS-2" target="xWwAX8yrmCoNilL9z8sZ-99" edge="1">
          <mxGeometry relative="1" as="geometry" />
        </mxCell>
        <mxCell id="D-mSAHQnKh3Qnr3-uecS-2" value="&lt;span style=&quot;border-color: var(--border-color); font-size: 12px;&quot;&gt;scheduled execution&lt;br&gt;&lt;/span&gt;" style="ellipse;whiteSpace=wrap;html=1;aspect=fixed;labelBackgroundColor=none;fontSize=10;fillColor=#FFFFFF;strokeColor=#666666;" parent="1" vertex="1">
          <mxGeometry x="1182" y="1434" width="130" height="130" as="geometry" />
        </mxCell>
        <mxCell id="xWwAX8yrmCoNilL9z8sZ-66" style="edgeStyle=orthogonalEdgeStyle;rounded=1;orthogonalLoop=1;jettySize=auto;html=1;entryX=0.5;entryY=0;entryDx=0;entryDy=0;strokeColor=#666666;" parent="1" source="D-mSAHQnKh3Qnr3-uecS-10" target="xWwAX8yrmCoNilL9z8sZ-36" edge="1">
          <mxGeometry relative="1" as="geometry" />
        </mxCell>
        <mxCell id="xWwAX8yrmCoNilL9z8sZ-113" value="&lt;font style=&quot;font-size: 12px;&quot;&gt;yes&lt;/font&gt;" style="edgeLabel;html=1;align=left;verticalAlign=middle;resizable=0;points=[];fontSize=10;fontColor=#000000;labelPosition=right;verticalLabelPosition=middle;" parent="xWwAX8yrmCoNilL9z8sZ-66" vertex="1" connectable="0">
          <mxGeometry x="-0.1429" y="1" relative="1" as="geometry">
            <mxPoint as="offset" />
          </mxGeometry>
        </mxCell>
        <mxCell id="D-mSAHQnKh3Qnr3-uecS-10" value="&lt;font style=&quot;font-size: 12px;&quot;&gt;current &lt;font style=&quot;font-size: 12px;&quot;&gt;webhook caBundle&lt;/font&gt;&amp;nbsp;diffrrent than &lt;br&gt;ca-&lt;font style=&quot;font-size: 12px;&quot;&gt;server-cert Secret&lt;/font&gt;?&lt;br&gt;&lt;br&gt;&lt;/font&gt;" style="rhombus;whiteSpace=wrap;html=1;labelBackgroundColor=none;fontSize=13;strokeColor=#666666;" parent="1" vertex="1">
          <mxGeometry x="1014" y="1727" width="160" height="160" as="geometry" />
        </mxCell>
        <mxCell id="xWwAX8yrmCoNilL9z8sZ-68" style="edgeStyle=orthogonalEdgeStyle;rounded=1;orthogonalLoop=1;jettySize=auto;html=1;entryX=0.5;entryY=0;entryDx=0;entryDy=0;strokeColor=#666666;" parent="1" source="D-mSAHQnKh3Qnr3-uecS-11" target="-tr_Jl8yfyVWpY2dG3ru-221" edge="1">
          <mxGeometry relative="1" as="geometry" />
        </mxCell>
        <mxCell id="xWwAX8yrmCoNilL9z8sZ-116" value="&lt;font style=&quot;font-size: 12px;&quot;&gt;yes&lt;/font&gt;" style="edgeLabel;html=1;align=left;verticalAlign=middle;resizable=0;points=[];fontSize=10;fontColor=#000000;labelPosition=right;verticalLabelPosition=middle;" parent="xWwAX8yrmCoNilL9z8sZ-68" vertex="1" connectable="0">
          <mxGeometry x="-0.0863" relative="1" as="geometry">
            <mxPoint as="offset" />
          </mxGeometry>
        </mxCell>
        <mxCell id="D-mSAHQnKh3Qnr3-uecS-11" value="&lt;font style=&quot;font-size: 12px;&quot;&gt;&lt;span style=&quot;border-color: var(--border-color);&quot;&gt;&amp;nbsp;&lt;font style=&quot;border-color: var(--border-color); font-size: 12px;&quot;&gt;webhook-server-cert&lt;/font&gt;&amp;nbsp;&lt;br&gt;&amp;nbsp; not signed &lt;br&gt;by ca-server-cert ?&lt;/span&gt;&lt;br&gt;&lt;/font&gt;" style="rhombus;whiteSpace=wrap;html=1;labelBackgroundColor=none;fontSize=13;strokeColor=#666666;" parent="1" vertex="1">
          <mxGeometry x="1265" y="1725" width="160" height="160" as="geometry" />
        </mxCell>
        <mxCell id="xWwAX8yrmCoNilL9z8sZ-64" style="edgeStyle=orthogonalEdgeStyle;rounded=1;orthogonalLoop=1;jettySize=auto;html=1;entryX=0.5;entryY=0;entryDx=0;entryDy=0;strokeColor=#666666;" parent="1" source="D-mSAHQnKh3Qnr3-uecS-12" target="-tr_Jl8yfyVWpY2dG3ru-175" edge="1">
          <mxGeometry relative="1" as="geometry" />
        </mxCell>
        <mxCell id="xWwAX8yrmCoNilL9z8sZ-111" value="&lt;font style=&quot;font-size: 12px;&quot;&gt;no&lt;/font&gt;" style="edgeLabel;html=1;align=left;verticalAlign=middle;resizable=0;points=[];fontSize=10;fontColor=#000000;labelPosition=right;verticalLabelPosition=middle;" parent="xWwAX8yrmCoNilL9z8sZ-64" vertex="1" connectable="0">
          <mxGeometry x="-0.2083" y="1" relative="1" as="geometry">
            <mxPoint as="offset" />
          </mxGeometry>
        </mxCell>
        <mxCell id="D-mSAHQnKh3Qnr3-uecS-12" value="&lt;font style=&quot;font-size: 12px;&quot;&gt;&lt;span style=&quot;border-color: var(--border-color);&quot;&gt;&lt;font style=&quot;border-color: var(--border-color); font-size: 12px;&quot;&gt;ca-server-cert&lt;/font&gt;&lt;/span&gt;&lt;span style=&quot;border-color: var(--border-color);&quot;&gt;&lt;font style=&quot;border-color: var(--border-color); font-size: 12px;&quot;&gt;&lt;br style=&quot;border-color: var(--border-color);&quot;&gt;&lt;/font&gt;Secret&amp;nbsp;exists?&lt;/span&gt;&lt;br&gt;&lt;/font&gt;" style="rhombus;whiteSpace=wrap;html=1;labelBackgroundColor=none;fontSize=13;strokeColor=#666666;" parent="1" vertex="1">
          <mxGeometry x="512" y="1730" width="160" height="160" as="geometry" />
        </mxCell>
        <mxCell id="xWwAX8yrmCoNilL9z8sZ-65" style="edgeStyle=orthogonalEdgeStyle;rounded=1;orthogonalLoop=1;jettySize=auto;html=1;strokeColor=#666666;" parent="1" source="D-mSAHQnKh3Qnr3-uecS-13" target="-tr_Jl8yfyVWpY2dG3ru-217" edge="1">
          <mxGeometry relative="1" as="geometry" />
        </mxCell>
        <mxCell id="xWwAX8yrmCoNilL9z8sZ-112" value="&lt;font style=&quot;font-size: 12px;&quot;&gt;no&lt;/font&gt;" style="edgeLabel;html=1;align=left;verticalAlign=middle;resizable=0;points=[];fontSize=10;fontColor=#000000;labelPosition=right;verticalLabelPosition=middle;" parent="xWwAX8yrmCoNilL9z8sZ-65" vertex="1" connectable="0">
          <mxGeometry x="-0.2211" relative="1" as="geometry">
            <mxPoint as="offset" />
          </mxGeometry>
        </mxCell>
        <mxCell id="D-mSAHQnKh3Qnr3-uecS-13" value="&lt;font style=&quot;font-size: 12px;&quot;&gt;&lt;span style=&quot;border-color: var(--border-color);&quot;&gt;&lt;span style=&quot;border-color: var(--border-color);&quot;&gt;&lt;font style=&quot;border-color: var(--border-color); font-size: 12px;&quot;&gt;&lt;font style=&quot;border-color: var(--border-color); font-size: 12px;&quot;&gt;webhook-server-cert&lt;/font&gt;&amp;nbsp;&lt;/font&gt;&lt;/span&gt;&lt;span style=&quot;border-color: var(--border-color);&quot;&gt;Secret&amp;nbsp;exists?&lt;/span&gt;&lt;/span&gt;&lt;br&gt;&lt;/font&gt;" style="rhombus;whiteSpace=wrap;html=1;labelBackgroundColor=none;fontSize=13;strokeColor=#666666;" parent="1" vertex="1">
          <mxGeometry x="763" y="1730" width="160" height="160" as="geometry" />
        </mxCell>
        <mxCell id="xWwAX8yrmCoNilL9z8sZ-69" style="edgeStyle=orthogonalEdgeStyle;rounded=1;orthogonalLoop=1;jettySize=auto;html=1;exitX=0.5;exitY=1;exitDx=0;exitDy=0;entryX=0.5;entryY=0;entryDx=0;entryDy=0;strokeColor=#666666;" parent="1" source="D-mSAHQnKh3Qnr3-uecS-14" target="-tr_Jl8yfyVWpY2dG3ru-134" edge="1">
          <mxGeometry relative="1" as="geometry" />
        </mxCell>
        <mxCell id="xWwAX8yrmCoNilL9z8sZ-115" value="&lt;font style=&quot;font-size: 12px;&quot;&gt;yes&lt;/font&gt;" style="edgeLabel;html=1;align=left;verticalAlign=middle;resizable=0;points=[];fontSize=10;fontColor=#000000;labelPosition=right;verticalLabelPosition=middle;" parent="xWwAX8yrmCoNilL9z8sZ-69" vertex="1" connectable="0">
          <mxGeometry x="-0.2539" y="-1" relative="1" as="geometry">
            <mxPoint y="12" as="offset" />
          </mxGeometry>
        </mxCell>
        <mxCell id="D-mSAHQnKh3Qnr3-uecS-14" value="&lt;font style=&quot;font-size: 12px;&quot;&gt;&lt;span style=&quot;border-color: var(--border-color);&quot;&gt;&lt;font style=&quot;border-color: var(--border-color); font-size: 12px;&quot;&gt;ca-server-cert&lt;/font&gt;&lt;span style=&quot;border-color: var(--border-color); background-color: initial;&quot;&gt;&lt;font style=&quot;border-color: var(--border-color); font-size: 12px;&quot;&gt;&amp;nbsp;&lt;br&gt;&lt;/font&gt;expires?&lt;/span&gt;&lt;/span&gt;&lt;br&gt;&lt;/font&gt;" style="rhombus;whiteSpace=wrap;html=1;labelBackgroundColor=none;fontSize=13;strokeColor=#666666;" parent="1" vertex="1">
          <mxGeometry x="1516" y="1722" width="160" height="160" as="geometry" />
        </mxCell>
        <mxCell id="xWwAX8yrmCoNilL9z8sZ-70" value="&lt;font style=&quot;font-size: 12px;&quot;&gt;yes&lt;/font&gt;" style="edgeStyle=orthogonalEdgeStyle;rounded=1;orthogonalLoop=1;jettySize=auto;html=1;strokeColor=#666666;labelPosition=right;verticalLabelPosition=middle;align=left;verticalAlign=middle;" parent="1" source="D-mSAHQnKh3Qnr3-uecS-16" edge="1">
          <mxGeometry relative="1" as="geometry">
            <mxPoint x="1846" y="1981" as="targetPoint" />
          </mxGeometry>
        </mxCell>
        <mxCell id="D-mSAHQnKh3Qnr3-uecS-16" value="&lt;font style=&quot;font-size: 12px;&quot;&gt;&lt;span style=&quot;border-color: var(--border-color);&quot;&gt;&amp;nbsp; &amp;nbsp; &lt;span style=&quot;border-color: var(--border-color);&quot;&gt;&lt;font style=&quot;border-color: var(--border-color); font-size: 12px;&quot;&gt;webhook-server-cert&lt;/font&gt;&amp;nbsp;&lt;/span&gt;&lt;span style=&quot;border-color: var(--border-color); background-color: initial;&quot;&gt;expires?&lt;/span&gt;&lt;/span&gt;&lt;br&gt;&lt;/font&gt;" style="rhombus;whiteSpace=wrap;html=1;labelBackgroundColor=none;fontSize=13;strokeColor=#666666;" parent="1" vertex="1">
          <mxGeometry x="1766" y="1722" width="160" height="160" as="geometry" />
        </mxCell>
        <mxCell id="xWwAX8yrmCoNilL9z8sZ-60" style="edgeStyle=orthogonalEdgeStyle;rounded=1;orthogonalLoop=1;jettySize=auto;html=1;entryX=0.5;entryY=0;entryDx=0;entryDy=0;strokeColor=#666666;" parent="1" source="xWwAX8yrmCoNilL9z8sZ-35" target="xWwAX8yrmCoNilL9z8sZ-54" edge="1">
          <mxGeometry relative="1" as="geometry" />
        </mxCell>
        <mxCell id="xWwAX8yrmCoNilL9z8sZ-35" value="&lt;div style=&quot;font-size: 12px;&quot;&gt;&lt;font style=&quot;background-color: initial; font-size: 12px;&quot;&gt;set Webhooks&#39;&lt;/font&gt;&lt;/div&gt;&lt;div style=&quot;font-size: 12px;&quot;&gt;&lt;font style=&quot;background-color: initial; font-size: 12px;&quot;&gt;caBundle&amp;nbsp;&lt;/font&gt;&lt;/div&gt;&lt;div style=&quot;font-size: 12px;&quot;&gt;&lt;font style=&quot;background-color: initial; font-size: 12px;&quot;&gt;to cert from&amp;nbsp;&lt;/font&gt;&lt;span style=&quot;background-color: initial; border-color: var(--border-color);&quot;&gt;ca-server-cert&amp;nbsp;&lt;/span&gt;&lt;span style=&quot;background-color: initial; border-color: var(--border-color);&quot;&gt;Secret&lt;/span&gt;&lt;/div&gt;" style="rounded=1;whiteSpace=wrap;html=1;fontSize=14;align=center;strokeColor=#666666;" parent="1" vertex="1">
          <mxGeometry x="1020.38" y="2203" width="145.25" height="71" as="geometry" />
        </mxCell>
        <mxCell id="Pu00R0AXdo9YrrrDTK1f-5" value="" style="edgeStyle=orthogonalEdgeStyle;rounded=1;orthogonalLoop=1;jettySize=auto;html=1;strokeColor=#666666;" parent="1" source="xWwAX8yrmCoNilL9z8sZ-36" target="xWwAX8yrmCoNilL9z8sZ-37" edge="1">
          <mxGeometry relative="1" as="geometry" />
        </mxCell>
        <mxCell id="xWwAX8yrmCoNilL9z8sZ-36" value="&lt;font style=&quot;font-size: 12px;&quot;&gt;recreate&amp;nbsp;&lt;span style=&quot;border-color: var(--border-color);&quot;&gt;ca-server-cert&lt;/span&gt;&lt;/font&gt;" style="rounded=1;whiteSpace=wrap;html=1;fontSize=14;strokeColor=#666666;" parent="1" vertex="1">
          <mxGeometry x="1020.5" y="1985" width="147" height="59" as="geometry" />
        </mxCell>
        <mxCell id="Pu00R0AXdo9YrrrDTK1f-6" value="" style="edgeStyle=orthogonalEdgeStyle;rounded=1;orthogonalLoop=1;jettySize=auto;html=1;strokeColor=#666666;" parent="1" source="xWwAX8yrmCoNilL9z8sZ-37" target="xWwAX8yrmCoNilL9z8sZ-35" edge="1">
          <mxGeometry relative="1" as="geometry" />
        </mxCell>
        <mxCell id="xWwAX8yrmCoNilL9z8sZ-37" value="&lt;font style=&quot;font-size: 12px;&quot;&gt;recreate&amp;nbsp;&lt;span style=&quot;border-color: var(--border-color);&quot;&gt;webhook-server-cert&lt;/span&gt;&lt;/font&gt;" style="rounded=1;whiteSpace=wrap;html=1;fontSize=14;" parent="1" vertex="1">
          <mxGeometry x="1021.5" y="2094" width="145" height="62" as="geometry" />
        </mxCell>
        <mxCell id="xWwAX8yrmCoNilL9z8sZ-50" value="&lt;font style=&quot;font-size: 12px;&quot;&gt;certificates&#39; reconciliation&lt;br&gt;complete&lt;br&gt;&lt;/font&gt;" style="ellipse;whiteSpace=wrap;html=1;aspect=fixed;labelBackgroundColor=none;fontSize=10;fillColor=#FFFFFF;strokeColor=#666666;" parent="1" vertex="1">
          <mxGeometry x="527.5" y="2319.25" width="130" height="130" as="geometry" />
        </mxCell>
        <mxCell id="xWwAX8yrmCoNilL9z8sZ-53" value="&lt;span style=&quot;border-color: var(--border-color); font-size: 12px;&quot;&gt;&lt;font style=&quot;font-size: 12px;&quot;&gt;certificates&#39;&amp;nbsp;&lt;br&gt;&lt;/font&gt;&lt;/span&gt;&lt;font style=&quot;font-size: 12px;&quot;&gt;&lt;font style=&quot;font-size: 12px;&quot;&gt;reconciliation&lt;br&gt;complete&lt;/font&gt;&lt;br&gt;&lt;/font&gt;" style="ellipse;whiteSpace=wrap;html=1;aspect=fixed;labelBackgroundColor=none;fontSize=10;fillColor=#FFFFFF;strokeColor=#666666;" parent="1" vertex="1">
          <mxGeometry x="778" y="2088" width="130" height="130" as="geometry" />
        </mxCell>
        <mxCell id="xWwAX8yrmCoNilL9z8sZ-54" value="&lt;span style=&quot;border-color: var(--border-color); font-size: 12px;&quot;&gt;&lt;font style=&quot;font-size: 12px;&quot;&gt;certificates&#39;&amp;nbsp;&lt;br&gt;&lt;/font&gt;&lt;/span&gt;&lt;font style=&quot;font-size: 12px;&quot;&gt;&lt;font style=&quot;font-size: 12px;&quot;&gt;reconciliation&lt;br&gt;complete&lt;/font&gt;&lt;br&gt;&lt;/font&gt;" style="ellipse;whiteSpace=wrap;html=1;aspect=fixed;labelBackgroundColor=none;fontSize=10;fillColor=#FFFFFF;strokeColor=#666666;" parent="1" vertex="1">
          <mxGeometry x="1028.0000000000002" y="2310" width="130" height="130" as="geometry" />
        </mxCell>
        <mxCell id="xWwAX8yrmCoNilL9z8sZ-55" value="&lt;font style=&quot;font-size: 12px;&quot;&gt;&lt;span style=&quot;border-color: var(--border-color);&quot;&gt;certificates&#39;&amp;nbsp;&lt;br&gt;&lt;/span&gt;reconciliation&lt;br&gt;&lt;span style=&quot;border-color: var(--border-color);&quot;&gt;complete&lt;/span&gt;&lt;/font&gt;&lt;font size=&quot;1&quot; color=&quot;#330000&quot;&gt;&lt;b&gt;&lt;br&gt;&lt;/b&gt;&lt;/font&gt;" style="ellipse;whiteSpace=wrap;html=1;aspect=fixed;labelBackgroundColor=none;fontSize=10;fillColor=#FFFFFF;strokeColor=#666666;" parent="1" vertex="1">
          <mxGeometry x="1279.5" y="2309" width="130" height="130" as="geometry" />
        </mxCell>
        <mxCell id="xWwAX8yrmCoNilL9z8sZ-56" value="&lt;font style=&quot;font-size: 12px;&quot;&gt;&lt;span style=&quot;border-color: var(--border-color);&quot;&gt;certificates&#39;&amp;nbsp;&lt;br&gt;&lt;/span&gt;reconciliation&lt;br&gt;&lt;span style=&quot;border-color: var(--border-color);&quot;&gt;complete&lt;/span&gt;&lt;/font&gt;&lt;font size=&quot;1&quot; color=&quot;#330000&quot;&gt;&lt;b&gt;&lt;br&gt;&lt;/b&gt;&lt;/font&gt;" style="ellipse;whiteSpace=wrap;html=1;aspect=fixed;labelBackgroundColor=none;fontSize=10;fillColor=#FFFFFF;strokeColor=#666666;" parent="1" vertex="1">
          <mxGeometry x="1530.5" y="2312.5" width="130" height="130" as="geometry" />
        </mxCell>
        <mxCell id="xWwAX8yrmCoNilL9z8sZ-57" value="&lt;span style=&quot;border-color: var(--border-color); font-size: 12px;&quot;&gt;&lt;font style=&quot;font-size: 12px;&quot;&gt;certificates&#39;&lt;/font&gt;&lt;/span&gt;&lt;font style=&quot;font-size: 12px;&quot;&gt;&lt;font style=&quot;font-size: 12px;&quot;&gt;&amp;nbsp;&lt;br&gt;reconciliation&lt;br&gt;complete&lt;/font&gt;&lt;br&gt;&lt;/font&gt;" style="ellipse;whiteSpace=wrap;html=1;aspect=fixed;labelBackgroundColor=none;fontSize=10;fillColor=#FFFFFF;strokeColor=#666666;" parent="1" vertex="1">
          <mxGeometry x="1781" y="2088" width="130" height="130" as="geometry" />
        </mxCell>
        <mxCell id="xWwAX8yrmCoNilL9z8sZ-72" value="" style="endArrow=classic;html=1;rounded=1;strokeColor=#666666;" parent="1" edge="1">
          <mxGeometry width="50" height="50" relative="1" as="geometry">
            <mxPoint x="672" y="1809.5" as="sourcePoint" />
            <mxPoint x="762" y="1809.5" as="targetPoint" />
          </mxGeometry>
        </mxCell>
        <mxCell id="xWwAX8yrmCoNilL9z8sZ-106" value="&lt;font style=&quot;font-size: 12px;&quot;&gt;yes&lt;/font&gt;" style="edgeLabel;html=1;align=center;verticalAlign=bottom;resizable=0;points=[];fontSize=12;fontColor=#000000;" parent="xWwAX8yrmCoNilL9z8sZ-72" vertex="1" connectable="0">
          <mxGeometry x="-0.0667" y="1" relative="1" as="geometry">
            <mxPoint y="1" as="offset" />
          </mxGeometry>
        </mxCell>
        <mxCell id="xWwAX8yrmCoNilL9z8sZ-73" value="" style="endArrow=classic;html=1;rounded=1;strokeColor=#666666;" parent="1" edge="1">
          <mxGeometry width="50" height="50" relative="1" as="geometry">
            <mxPoint x="923" y="1809.5" as="sourcePoint" />
            <mxPoint x="1013" y="1809.5" as="targetPoint" />
          </mxGeometry>
        </mxCell>
        <mxCell id="xWwAX8yrmCoNilL9z8sZ-117" value="&lt;font style=&quot;font-size: 12px;&quot;&gt;yes&lt;/font&gt;" style="edgeLabel;html=1;align=center;verticalAlign=bottom;resizable=0;points=[];fontSize=12;fontColor=#000000;" parent="xWwAX8yrmCoNilL9z8sZ-73" vertex="1" connectable="0">
          <mxGeometry y="3" relative="1" as="geometry">
            <mxPoint y="1" as="offset" />
          </mxGeometry>
        </mxCell>
        <mxCell id="xWwAX8yrmCoNilL9z8sZ-74" value="" style="endArrow=classic;html=1;rounded=1;strokeColor=#666666;" parent="1" edge="1">
          <mxGeometry width="50" height="50" relative="1" as="geometry">
            <mxPoint x="1174" y="1806.5" as="sourcePoint" />
            <mxPoint x="1264" y="1806.5" as="targetPoint" />
          </mxGeometry>
        </mxCell>
        <mxCell id="xWwAX8yrmCoNilL9z8sZ-108" value="&lt;font style=&quot;font-size: 12px;&quot;&gt;no&lt;/font&gt;" style="edgeLabel;html=1;align=center;verticalAlign=bottom;resizable=0;points=[];fontSize=12;fontColor=#000000;" parent="xWwAX8yrmCoNilL9z8sZ-74" vertex="1" connectable="0">
          <mxGeometry x="-0.1556" y="3" relative="1" as="geometry">
            <mxPoint y="1" as="offset" />
          </mxGeometry>
        </mxCell>
        <mxCell id="xWwAX8yrmCoNilL9z8sZ-75" value="" style="endArrow=classic;html=1;rounded=1;strokeColor=#666666;" parent="1" edge="1">
          <mxGeometry width="50" height="50" relative="1" as="geometry">
            <mxPoint x="1425" y="1804.5" as="sourcePoint" />
            <mxPoint x="1515" y="1804.5" as="targetPoint" />
          </mxGeometry>
        </mxCell>
        <mxCell id="xWwAX8yrmCoNilL9z8sZ-109" value="&lt;font style=&quot;font-size: 12px;&quot;&gt;no&lt;/font&gt;" style="edgeLabel;html=1;align=center;verticalAlign=bottom;resizable=0;points=[];fontSize=12;fontColor=#000000;" parent="xWwAX8yrmCoNilL9z8sZ-75" vertex="1" connectable="0">
          <mxGeometry x="-0.1333" y="3" relative="1" as="geometry">
            <mxPoint y="1" as="offset" />
          </mxGeometry>
        </mxCell>
        <mxCell id="xWwAX8yrmCoNilL9z8sZ-76" value="" style="endArrow=classic;html=1;rounded=1;strokeColor=#666666;" parent="1" edge="1">
          <mxGeometry width="50" height="50" relative="1" as="geometry">
            <mxPoint x="1676" y="1801.5" as="sourcePoint" />
            <mxPoint x="1766" y="1801.5" as="targetPoint" />
          </mxGeometry>
        </mxCell>
        <mxCell id="xWwAX8yrmCoNilL9z8sZ-110" value="&lt;font style=&quot;font-size: 12px;&quot;&gt;no&lt;/font&gt;" style="edgeLabel;html=1;align=center;verticalAlign=bottom;resizable=0;points=[];fontSize=12;fontColor=#000000;" parent="xWwAX8yrmCoNilL9z8sZ-76" vertex="1" connectable="0">
          <mxGeometry x="-0.1556" y="2" relative="1" as="geometry">
            <mxPoint y="1" as="offset" />
          </mxGeometry>
        </mxCell>
        <mxCell id="xWwAX8yrmCoNilL9z8sZ-99" value="&lt;b style=&quot;border-color: var(--border-color); font-family: Helvetica; font-style: normal; font-variant-ligatures: normal; font-variant-caps: normal; letter-spacing: normal; orphans: 2; text-align: center; text-indent: 0px; text-transform: none; widows: 2; word-spacing: 0px; -webkit-text-stroke-width: 0px; background-color: rgb(255, 255, 255); text-decoration-thickness: initial; text-decoration-style: initial; text-decoration-color: initial; font-size: 15px;&quot;&gt;&lt;font style=&quot;font-size: 15px;&quot; color=&quot;#000000&quot;&gt;btpOperator reconciliation&lt;/font&gt;&lt;/b&gt;" style="text;whiteSpace=wrap;html=1;fontColor=#EA6B66;fontSize=15;" parent="1" vertex="1">
          <mxGeometry x="1148.5600000000002" y="1635" width="196.87" height="25" as="geometry" />
        </mxCell>
        <mxCell id="rAdUN6T4OuiU2hSwLSGW-9" value="&lt;font style=&quot;font-size: 13px;&quot;&gt;&lt;b style=&quot;&quot;&gt;&lt;span style=&quot;white-space: pre;&quot;&gt;&#x9;&lt;/span&gt;&lt;font style=&quot;font-size: 13px;&quot;&gt;Reference key:&lt;br&gt;&lt;/font&gt;&lt;/b&gt;&lt;font style=&quot;font-size: 13px;&quot;&gt;&lt;br&gt;&lt;/font&gt;&lt;/font&gt;&lt;blockquote style=&quot;margin: 0px 0px 0px 40px; border: none; padding: 0px; font-size: 13px;&quot;&gt;&lt;font style=&quot;font-size: 13px;&quot;&gt;&lt;span style=&quot;border-color: var(--border-color); color: rgb(0, 0, 0);&quot;&gt;&lt;font style=&quot;border-color: var(--border-color); font-size: 13px;&quot;&gt;ca-server-cert&lt;/font&gt;&amp;nbsp;=&amp;nbsp;Self-signed root certificate authority&lt;br&gt;&lt;/span&gt;&lt;span style=&quot;border-color: var(--border-color); color: rgb(0, 0, 0);&quot;&gt;&lt;span style=&quot;border-color: var(--border-color);&quot;&gt;&lt;font style=&quot;border-color: var(--border-color); font-size: 13px;&quot;&gt;webhook-server-cert&amp;nbsp;&lt;/font&gt;&lt;font style=&quot;border-color: var(--border-color); font-size: 13px;&quot;&gt;=&lt;/font&gt;&lt;font style=&quot;border-color: var(--border-color); font-size: 13px;&quot;&gt;&amp;nbsp;&lt;/font&gt;&lt;font style=&quot;border-color: var(--border-color); font-size: 13px;&quot;&gt;Signed certificate by&amp;nbsp;&lt;/font&gt;&lt;font style=&quot;border-color: var(--border-color); font-size: 13px;&quot;&gt;ca-server-cert&lt;/font&gt;&lt;/span&gt;&lt;/span&gt;&lt;/font&gt;&lt;/blockquote&gt;" style="rounded=1;whiteSpace=wrap;html=1;fontSize=14;fillColor=#f0f6ff;fontColor=#333333;strokeColor=#FFFFFF;align=left;" parent="1" vertex="1">
          <mxGeometry x="474" y="2590" width="453" height="92" as="geometry" />
        </mxCell>
      </root>
    </mxGraphModel>
  </diagram>
</mxfile>
